<svg xmlns="http://www.w3.org/2000/svg" viewBox="0 0 64 64" fill="none">
  <rect x="6" y="10" width="52" height="44" rx="6" ry="6" fill="#f2ede1" stroke="#141414" stroke-width="3"/>
  <rect x="10" y="16" width="44" height="28" rx="4" ry="4" fill="#d9d2c3" stroke="#141414" stroke-width="2"/>
  <rect x="10" y="34" width="44" height="14" rx="2" ry="2" fill="#f8f6f2" stroke="#141414" stroke-width="2"/>
  <rect x="14" y="34" width="4" height="14" fill="#0f0f0f"/>
  <rect x="22" y="34" width="4" height="14" fill="#0f0f0f"/>
  <rect x="30" y="34" width="4" height="14" fill="#0f0f0f"/>
  <rect x="38" y="34" width="4" height="14" fill="#0f0f0f"/>
  <rect x="46" y="34" width="4" height="14" fill="#0f0f0f"/>
  <rect x="14" y="22" width="6" height="10" rx="1" fill="#1a1a1a"/>
  <rect x="24" y="22" width="6" height="10" rx="1" fill="#1a1a1a"/>
  <rect x="34" y="22" width="6" height="10" rx="1" fill="#1a1a1a"/>
  <rect x="44" y="22" width="6" height="10" rx="1" fill="#1a1a1a"/>
  <path d="M10 30h44" stroke="#141414" stroke-width="2"/>
</svg>
